<svg id="Capa_1" data-name="Capa 1" xmlns="http://www.w3.org/2000/svg" viewBox="0 0 115.23 95.81"><defs><style>.cls-1{fill:#366231;}</style></defs><g id="Verde"><path class="cls-1" d="M56.05,48.12,56,47.6a1.56,1.56,0,0,0-1.26-1.46,1.33,1.33,0,0,0-1.55.72A1.77,1.77,0,0,0,53.38,49a3.6,3.6,0,0,0,4.3.59,3.36,3.36,0,0,0,1.34-4,5.72,5.72,0,0,0-6.61-3.41,5.32,5.32,0,0,0-3.36,6.41,7.51,7.51,0,0,0,6.41,5.28,7.26,7.26,0,0,0,7.63-4.24c1.86-3.73,1.68-7.32-.91-10.64A16,16,0,0,0,53,32.72a15.8,15.8,0,0,0-5.18.14,25.47,25.47,0,0,1-12-1.46,6.15,6.15,0,0,1-1.79-1,1.38,1.38,0,0,1-.42-1.17c.05-.25.69-.56,1-.51a21.72,21.72,0,0,1,3,.66c1.49.42,3,.93,4.46,1.33.58.15,1.33.23,1.59-.5s-.29-1.18-.85-1.45c-1.1-.54-2.23-1-3.36-1.46s-2-.74-3-1.14a7.83,7.83,0,0,1-1.24-.59c-.77-.45-1.11-1.06-.86-1.61.32-.72,1-.71,1.58-.52q2.51.84,5,1.78c.91.34,1.78.78,2.66,1.17a6.92,6.92,0,0,0,.86.33c.62.2,1.23.15,1.52-.48a1.06,1.06,0,0,0-.67-1.44C43.8,24.15,42.37,23.58,41,23c-.95-.43-1.9-.88-2.82-1.37a2.55,2.55,0,0,1-.86-.74A.9.9,0,0,1,38,19.33a5.11,5.11,0,0,1,2,.37c1.38.59,2.7,1.33,4.07,2a14.19,14.19,0,0,0,2.35.89,1.25,1.25,0,0,0,1.07-.3,1.1,1.1,0,0,0-.14-1,10.87,10.87,0,0,0-1.71-1.61c-1-.73-2-1.34-3-2.07a3.49,3.49,0,0,1-1-1.28c-.32-.7.15-1.22.91-1.1a2.78,2.78,0,0,1,.93.32c3.67,2.18,7,4.73,9.19,8.49a35.24,35.24,0,0,0,8,9.49,19.55,19.55,0,0,1,5.26,6.41c3,6.31-.57,14.3-7.19,16-5.31,1.33-10.53-1.48-11.93-6.44a8.72,8.72,0,0,1,.64-6.55c2-3.94,7.3-4.87,10.94-1.93,2.29,1.85,3.48,4.2,2.87,7.2a5.31,5.31,0,0,1-4.49,4,6.11,6.11,0,0,1-5.65-2.69A3.81,3.81,0,0,1,52,44.82a3.34,3.34,0,0,1,4.3.08A2,2,0,0,1,56.05,48.12Z" transform="translate(-2.38 -7.5)"/><path class="cls-1" d="M65.67,15.59c0,.16,0,.31,0,.45a1.54,1.54,0,0,0,1.3,1.5,1.3,1.3,0,0,0,1.49-.67,1.74,1.74,0,0,0-.15-2.13A3.55,3.55,0,0,0,64.27,14a3.24,3.24,0,0,0-1.72,3.66,5.66,5.66,0,0,0,6.6,4,5.28,5.28,0,0,0,3.39-6.76,7.18,7.18,0,0,0-6.39-5A6.92,6.92,0,0,0,59.22,13a9.73,9.73,0,0,0,.45,12,19,19,0,0,0,6,4.88,11.62,11.62,0,0,0,7.37,1,25.24,25.24,0,0,1,12.82,1.3,7.74,7.74,0,0,1,1.93,1.07,1.39,1.39,0,0,1,.43,1.17c0,.24-.71.55-1,.49-1.37-.28-2.71-.68-4.07-1s-2.44-.69-3.68-1c-.49-.1-1.2-.08-1.26.53a1.72,1.72,0,0,0,.65,1.31A10.34,10.34,0,0,0,81,35.85c1.61.65,3.25,1.23,4.85,1.89a3.65,3.65,0,0,1,1.37.94,1.28,1.28,0,0,1,.17,1.1,1,1,0,0,1-.84.48A9.41,9.41,0,0,1,84,39.74c-2-.8-4-1.72-6.06-2.57a2.17,2.17,0,0,0-1.09-.25c-.36.06-.88.29-1,.56a1.45,1.45,0,0,0,.33,1.14,2.82,2.82,0,0,0,1.1.66c1.72.76,3.47,1.48,5.19,2.26a6.6,6.6,0,0,1,1.71,1.13,1.19,1.19,0,0,1,.3,1.07,1.31,1.31,0,0,1-.92.62,2.7,2.7,0,0,1-1.34-.2c-1.2-.51-2.37-1.09-3.55-1.62a32.75,32.75,0,0,0-3.16-1.37c-.37-.13-.88.13-1.33.21a3.29,3.29,0,0,0,.3,1.26A6.86,6.86,0,0,0,76,44c.81.59,1.67,1.09,2.48,1.67a9.71,9.71,0,0,1,1.33,1.15c.4.42.6,1,.18,1.44a1.39,1.39,0,0,1-1.3.11c-1.69-1.08-3.37-2.21-5-3.43a20.35,20.35,0,0,1-5.5-6.52,24.69,24.69,0,0,0-5.85-7,32.66,32.66,0,0,1-5.4-5.62A11.9,11.9,0,0,1,59.2,9.61c4.68-3.56,11.64-2.51,14.65,2.31A8.7,8.7,0,0,1,74,21.23a6.94,6.94,0,0,1-7.42,3.1A8.17,8.17,0,0,1,60.37,18a5.53,5.53,0,0,1,2.71-5.87,5.86,5.86,0,0,1,6.33.71,3.89,3.89,0,0,1,1.5,4.27,3.4,3.4,0,0,1-5.53,1.65A1.88,1.88,0,0,1,65.67,15.59Z" transform="translate(-2.38 -7.5)"/><path class="cls-1" d="M7.12,76.75H3.48V49.62A12.33,12.33,0,0,1,15.64,55.5a14.27,14.27,0,0,1,2.15,7.63V76.74H14.13v-.88c0-4.26.08-8.53,0-12.8a9.55,9.55,0,0,0-5.45-8.77c-.44-.22-.93-.35-1.54-.58Z" transform="translate(-2.38 -7.5)"/><path class="cls-1" d="M30.56,60.35h3.66V68c0,2.32.74,3.41,3,4.28l-1.6,3.61a6.79,6.79,0,0,1-3.19-2.17,18,18,0,0,1-3.54,1.9,6.46,6.46,0,0,1-7.18-2.35c-3.36-4.1-1.91-10.48,2.79-12.5a1.75,1.75,0,0,1,.43-.17,9.94,9.94,0,0,1,2.34-.3c.93.1.81,1.16,1.18,1.77a19.73,19.73,0,0,1,1,2.23H27.24a3.52,3.52,0,0,0-3.64,3.13A3.87,3.87,0,0,0,26,71.77a3.44,3.44,0,0,0,4.37-2.62,6.43,6.43,0,0,0,.16-1.52C30.56,65.23,30.56,62.84,30.56,60.35Z" transform="translate(-2.38 -7.5)"/><path class="cls-1" d="M106,66.64c-.8,0-1.45,0-2.11,0a3.56,3.56,0,0,0-3.66,2.76A3.9,3.9,0,0,0,102,73.82a3.35,3.35,0,0,0,5-2.71c.2-2.31.09-4.65.12-7,0-.48,0-1,0-1.53,1.16,0,2.23,0,3.29,0,.14,0,.36.43.36.66q0,3.67,0,7.36a3.58,3.58,0,0,0,.91,2.68,17,17,0,0,0,2,1.47l-1.52,3.44A6.62,6.62,0,0,1,108.85,76a21.12,21.12,0,0,1-2.12,1.51c-3.47,1.91-7.65.4-9.5-3.4-2-4.12-.23-9.3,3.83-10.93a12.45,12.45,0,0,1,2.61-.52.67.67,0,0,1,.57.23C104.83,64.06,105.38,65.28,106,66.64Z" transform="translate(-2.38 -7.5)"/><path class="cls-1" d="M47.13,61.94h3.63v.85c0,2.4,0,4.8,0,7.2a3.47,3.47,0,1,0,6.94-.13c0-2.61,0-5.21,0-7.88H61.4c0,.3,0,.6,0,.9v7a3.84,3.84,0,0,0,3,4l-1.6,3.63a6.76,6.76,0,0,1-3.33-2.33c-.11.09-.22.16-.31.25-3.9,3.9-9.9,2.18-11.67-3.1a6.62,6.62,0,0,1-.37-2C47.1,67.55,47.13,64.79,47.13,61.94Z" transform="translate(-2.38 -7.5)"/><path class="cls-1" d="M45.22,72.65,43.55,76.3a6.22,6.22,0,0,1-3.21-2,8.32,8.32,0,0,1-2.21-5.87q0-11.54,0-23.08c0-.12,0-.25,0-.44h3.66v8.11h3.45v3.77H41.91c0,.37,0,.67,0,1V68.53A3.82,3.82,0,0,0,45.22,72.65Z" transform="translate(-2.38 -7.5)"/><path class="cls-1" d="M83.2,74.69,80.94,72l3-2.08a2.9,2.9,0,0,0-2.77-1,4.4,4.4,0,0,0-3.47,5.82,4.07,4.07,0,0,0,3.83,3,21.37,21.37,0,0,0,3.15-.4c.2,0,.51-.09.6,0,.81.91,1.59,1.85,2.42,2.85a11.15,11.15,0,0,1-5.33,1.17,8.4,8.4,0,0,1-6.75-3.07,7.78,7.78,0,0,1-1-8.11,6.93,6.93,0,0,1,6.13-4.41,7.16,7.16,0,0,1,7.5,4.61.88.88,0,0,1-.42,1.24C86.34,72.58,84.82,73.62,83.2,74.69Z" transform="translate(-2.38 -7.5)"/><path class="cls-1" d="M97.67,78,96,81.58a6.31,6.31,0,0,1-3.23-2A8.1,8.1,0,0,1,90.62,74V50.2h3.62c0,.3.05.62.05.94V73.66a3.89,3.89,0,0,0,2.25,3.93A11.47,11.47,0,0,0,97.67,78Z" transform="translate(-2.38 -7.5)"/><path class="cls-1" d="M73.53,67.57a3.75,3.75,0,0,0-3.31,3.12,6.16,6.16,0,0,0-.08,1.22c0,2.52,0,5,0,7.6h-3.6c0-.21,0-.4,0-.59,0-2.58-.08-5.16,0-7.73a7.68,7.68,0,0,1,4.58-7c.53-.25.85-.22,1.09.41C72.56,65.56,73.05,66.54,73.53,67.57Z" transform="translate(-2.38 -7.5)"/><path class="cls-1" d="M117.61,70.43a2.45,2.45,0,0,1-2.45,2.5,2.48,2.48,0,1,1,0-5A2.47,2.47,0,0,1,117.61,70.43Zm-.62,0a1.91,1.91,0,0,0-1.88-2,2,2,0,0,0,0,3.94A1.88,1.88,0,0,0,117,70.47Z" transform="translate(-2.38 -7.5)"/><path class="cls-1" d="M116.13,71.64l-.13-.49a.86.86,0,0,0-.33-.57l0-.07a2.4,2.4,0,0,0,.26-.18.54.54,0,0,0,.16-.55.65.65,0,0,0-.46-.49,1.56,1.56,0,0,0-.43-.08,4.21,4.21,0,0,0-1.06.07.1.1,0,0,0-.08.08.76.76,0,0,0,0,.15v2a.49.49,0,0,0,0,.12.11.11,0,0,0,.1.09h.36a.11.11,0,0,0,.1-.1c0-.21,0-.42,0-.63a.41.41,0,0,1,0-.16s0,0,0,0a.86.86,0,0,1,.39,0,.37.37,0,0,1,.28.26c0,.1.06.2.09.3.1.44.11.38.49.39l.16,0S116.14,71.68,116.13,71.64Zm-.86-1.36a.89.89,0,0,1-.58.08.1.1,0,0,1-.07-.09,2.46,2.46,0,0,1,0-.26,1,1,0,0,1,0-.25.11.11,0,0,1,.06-.09.77.77,0,0,1,.58,0,.32.32,0,0,1,0,.57Z" transform="translate(-2.38 -7.5)"/><path class="cls-1" d="M2.39,96.85a3.35,3.35,0,0,1,.11-.55,2.12,2.12,0,0,1,.36-.74,1.63,1.63,0,0,1,.52-.42,1,1,0,0,1,.77-.07,1.5,1.5,0,0,1,.46.22,3,3,0,0,1,.58.54,5.64,5.64,0,0,1,.5.77c.25.49.48,1,.7,1.51a6.47,6.47,0,0,0,.51,1,.76.76,0,0,1,.13.41.48.48,0,0,1-.28.41A.76.76,0,0,1,6,99.82a.5.5,0,0,1-.11-.17l-.36-.83c-.16-.38-.31-.76-.48-1.14a5.07,5.07,0,0,0-.46-.82,1.83,1.83,0,0,0-.33-.35.57.57,0,0,0-.4-.13.34.34,0,0,0-.29.18.68.68,0,0,0-.08.31,5.86,5.86,0,0,0,0,.59c0,.41.12.81.19,1.21s.16,1.07.25,1.61a.48.48,0,0,1-.36.54.54.54,0,0,1-.71-.33,2.19,2.19,0,0,1-.1-.34c-.11-.5-.22-1-.29-1.52,0-.18,0-.37-.06-.55S2.39,96.93,2.39,96.85Z" transform="translate(-2.38 -7.5)"/><path class="cls-1" d="M89.79,103.3l-.27-.17a.47.47,0,0,1-.21-.36c0-.09,0-.18,0-.28,0-1.27,0-2.54,0-3.81,0-.37,0-.74,0-1.11l.12-2.81a.49.49,0,0,0,0-.12c0-.55.06-1.11.08-1.66,0-.28,0-.56,0-.83a.46.46,0,0,1,.37-.46.8.8,0,0,1,.46,0,.23.23,0,0,1,.16.25c0,.39,0,.79-.08,1.18a.22.22,0,0,1,0,.08c0,.64-.07,1.27-.1,1.9,0,.9-.08,1.8-.09,2.7,0,1.32,0,2.64,0,4l0,.44,0,.51a.43.43,0,0,1-.23.47s0,.06-.08.08Z" transform="translate(-2.38 -7.5)"/><path class="cls-1" d="M52.54,97.6a1.77,1.77,0,0,1,0-.22l.21-1.77c0-.25.05-.5.08-.75.06-.64.12-1.29.19-1.93s.13-1.24.2-1.86.12-1.07.19-1.61.15-1.16.23-1.73a.73.73,0,0,1,.6-.61.44.44,0,0,1,.51.43,1.38,1.38,0,0,1,0,.2,23,23,0,0,0-.38,2.35c-.07.64-.15,1.28-.2,1.93s-.08,1.11-.11,1.66c0,.29,0,.58,0,.87,0,0,0,0,0,0s.06,0,.07,0l.33-.29A3.65,3.65,0,0,1,55,93.9a2,2,0,0,1,.62-.25l.19,0a1,1,0,0,1,1.06.61,3,3,0,0,1,.21.64c.05.21.07.42.1.63.06.43.11.86.17,1.3a1.61,1.61,0,0,0,.08.38,1.27,1.27,0,0,0,.25.49,3.06,3.06,0,0,1,.21.29.4.4,0,0,1,0,.42s0,.09-.07.14a.33.33,0,0,1-.29.17,2,2,0,0,1-.35,0,.75.75,0,0,1-.61-.4,1.61,1.61,0,0,1-.18-.52,4.67,4.67,0,0,1-.1-.75c0-.23,0-.47,0-.71s0-.55-.07-.83a1.64,1.64,0,0,0-.1-.38.4.4,0,0,0-.51-.26.86.86,0,0,0-.41.24,2.69,2.69,0,0,0-.45.6c-.15.27-.29.56-.43.84s-.26.58-.4.87-.2.4-.31.6l-.11.16a.41.41,0,0,1-.35.22.58.58,0,0,1-.51-.32A.84.84,0,0,1,52.54,97.6Z" transform="translate(-2.38 -7.5)"/><path class="cls-1" d="M72.47,101l-.29,0a.67.67,0,0,1-.5-.36,2.21,2.21,0,0,1-.23-.87c0-.21,0-.43,0-.64V98.5a5.09,5.09,0,0,0-.06-.87,1.33,1.33,0,0,0-.1-.34.41.41,0,0,0-.49-.24,1.1,1.1,0,0,0-.44.26,2.69,2.69,0,0,0-.39.5c-.14.24-.28.48-.41.72s-.37.77-.56,1.14a4.37,4.37,0,0,1-.32.55,1,1,0,0,1-.21.24.3.3,0,0,1-.14.06.57.57,0,0,1-.6-.41,1,1,0,0,1,0-.39c0-.13,0-.27,0-.4.09-.69.19-1.39.28-2.08.07-.51.13-1,.19-1.54l.21-1.57c.06-.48.12-1,.19-1.45s.13-.89.2-1.34.13-.81.19-1.21l.06-.31a.67.67,0,0,1,.72-.5.41.41,0,0,1,.37.44,2.56,2.56,0,0,1,0,.27c-.2.8-.33,1.61-.45,2.42-.08.52-.12,1-.19,1.57-.09.7-.13,1.4-.2,2.1a5.72,5.72,0,0,0,0,.59s0,.06,0,.06a.1.1,0,0,0,.07,0l.36-.3a2.66,2.66,0,0,1,.63-.42,1.47,1.47,0,0,1,.8-.18,1.12,1.12,0,0,1,.31.05.74.74,0,0,1,.45.31,1.87,1.87,0,0,1,.27.57,4.77,4.77,0,0,1,.17.93c0,.46.08.92.14,1.38a1.7,1.7,0,0,0,.38.94,1,1,0,0,1,.15.24.4.4,0,0,1,0,.34.61.61,0,0,1-.07.14.39.39,0,0,1-.36.21Z" transform="translate(-2.38 -7.5)"/><path class="cls-1" d="M94,103.23h-.24l-.14-.08a.43.43,0,0,1-.23-.39c0-.41,0-.82,0-1.23s0-.74,0-1.11a3.57,3.57,0,0,1,.1-1,4.62,4.62,0,0,1,.38-1.08,2.44,2.44,0,0,1,.28-.43.69.69,0,0,1,.76-.19.58.58,0,0,1,.24.14,1.75,1.75,0,0,1,.33.39c.09.15.17.3.27.44a1.93,1.93,0,0,0,.22.28c.08.09.16.08.21,0l.18-.48c.1-.27.2-.55.31-.82A2.75,2.75,0,0,1,97,97a2.57,2.57,0,0,1,.21-.24.63.63,0,0,1,.56-.15.56.56,0,0,1,.24.13,1.83,1.83,0,0,1,.35.43,3.63,3.63,0,0,1,.37.83,8.59,8.59,0,0,1,.24,1.12c.11.59.21,1.17.37,1.75a6.52,6.52,0,0,0,.51,1.33.52.52,0,0,1-.2.72.88.88,0,0,1-.22.1.59.59,0,0,1-.61-.18,1.52,1.52,0,0,1-.24-.41,5.3,5.3,0,0,1-.23-.67,9.22,9.22,0,0,1-.25-1.16c-.1-.54-.19-1.07-.32-1.6a1,1,0,0,0-.19-.47s-.05,0-.07,0a.36.36,0,0,0-.07.1c-.15.32-.28.65-.4,1a3.72,3.72,0,0,0-.14.74c0,.27,0,.55-.09.83a1.68,1.68,0,0,1-.15.53,1.43,1.43,0,0,1-.15.27.48.48,0,0,1-.42.2.5.5,0,0,1-.4-.22,1.62,1.62,0,0,1-.21-.51c0-.18-.07-.37-.1-.55,0-.34-.08-.68-.15-1a2.28,2.28,0,0,0-.18-.52.62.62,0,0,0-.17-.22.45.45,0,0,0-.18-.07.19.19,0,0,0-.17.08,2.12,2.12,0,0,0-.17.69c0,.15,0,.3,0,.44,0,.62,0,1.24,0,1.86,0,.19,0,.37,0,.56a.45.45,0,0,1-.27.45Z" transform="translate(-2.38 -7.5)"/><path class="cls-1" d="M19.26,94.45c0-.23,0-.45-.05-.68s-.07-.73-.09-1.1a2.11,2.11,0,0,1,.05-.75.37.37,0,0,1,.12-.2.73.73,0,0,1,.51-.17.39.39,0,0,1,.4.36c0,.36.08.71.1,1.07a10,10,0,0,0,.3,2c.06.21.14.43.21.64a3.4,3.4,0,0,0,.53,1c.06.09.13.17.19.25a.26.26,0,0,1,0,.19.08.08,0,0,0,0,0,1.15,1.15,0,0,1-.45.55.67.67,0,0,1-.57.08.3.3,0,0,1-.24-.24l-.24-1.08c0-.1-.06-.2-.08-.3l0,0-.06,0c-.05.12-.1.24-.16.36a4.55,4.55,0,0,1-.47.87,2.42,2.42,0,0,1-.5.56,2.37,2.37,0,0,1-.33.22,1,1,0,0,1-.88,0,.91.91,0,0,1-.34-.27,1.9,1.9,0,0,1-.33-.63,4.32,4.32,0,0,1-.17-.94c0-.5-.05-1-.09-1.5q0-.49-.09-1a3.5,3.5,0,0,0-.25-1,.32.32,0,0,1,0-.3l0,0a.81.81,0,0,1,.84-.3.3.3,0,0,1,.26.31l.06,1.15c0,.25,0,.5,0,.75a13.85,13.85,0,0,0,.15,1.58,4.77,4.77,0,0,0,.17.65.73.73,0,0,0,.19.3.14.14,0,0,0,.18,0,1.94,1.94,0,0,0,.72-.78,3.23,3.23,0,0,0,.33-1.26c0-.11,0-.23,0-.35Z" transform="translate(-2.38 -7.5)"/><path class="cls-1" d="M8.36,97.63a1.59,1.59,0,0,0,.1.69s.07.06.1.05a.35.35,0,0,0,.11,0A1,1,0,0,0,9.09,98a6.18,6.18,0,0,0,.4-.64l.3-.61a2.33,2.33,0,0,1,.17-.26.48.48,0,0,1,.16-.12s.07,0,.11,0a2,2,0,0,1,.55.5c.14.16.26.34.39.5s.22.26.34.39a2.54,2.54,0,0,0,.69.53l.24.14a.16.16,0,0,1,.06.17.62.62,0,0,1-.07.19,1,1,0,0,1-.71.45.35.35,0,0,1-.3-.07,1.2,1.2,0,0,1-.26-.24c-.12-.13-.22-.27-.32-.4a2.1,2.1,0,0,0-.24-.27c-.12-.13-.17-.12-.26,0a2.8,2.8,0,0,1-1.09,1.07,2.34,2.34,0,0,1-.62.24,1.11,1.11,0,0,1-.36,0,.9.9,0,0,1-.84-.55,1.66,1.66,0,0,1-.13-.93c.06-.45.13-.89.2-1.34A15,15,0,0,1,7.9,95a4.59,4.59,0,0,1,.29-.78q.12-.24.27-.48a1.18,1.18,0,0,1,.23-.27.78.78,0,0,1,.62-.22.64.64,0,0,1,.33.1,1.65,1.65,0,0,1,.46.49,3.67,3.67,0,0,1,.42,1.07c0,.1,0,.21.05.31a2.62,2.62,0,0,1,0,.28c0,.35-.31.36-.55.24a.7.7,0,0,1-.24-.21c-.1-.14-.19-.29-.28-.43l-.18-.31a.07.07,0,0,0-.13,0l0,.07a9.53,9.53,0,0,0-.64,1.74A4.24,4.24,0,0,0,8.36,97.63Z" transform="translate(-2.38 -7.5)"/><path class="cls-1" d="M29.35,93a1.27,1.27,0,0,1-.08.54.27.27,0,0,1-.33.15.59.59,0,0,1-.33-.21,2.29,2.29,0,0,1-.29-.56c-.05-.13-.1-.27-.16-.4a.05.05,0,0,0-.09,0l0,0a8.37,8.37,0,0,0-1,2,3.94,3.94,0,0,0-.22,1,1.83,1.83,0,0,0,0,.47A.12.12,0,0,0,27,96l.15,0a1.05,1.05,0,0,0,.39-.27,4.48,4.48,0,0,0,.48-.58l.41-.58a2.39,2.39,0,0,1,.22-.23.22.22,0,0,1,.32,0,3,3,0,0,1,.43.57l.29.52a3,3,0,0,0,1,1.13l0,0a.23.23,0,0,1,.06.37,1.07,1.07,0,0,1-.79.4h-.08a.49.49,0,0,1-.3-.18,4.56,4.56,0,0,1-.27-.39c-.09-.15-.16-.31-.25-.45a.9.9,0,0,0-.19-.2s-.06,0-.07,0l-.13.15a2.72,2.72,0,0,1-1.92,1,1.29,1.29,0,0,1-.54-.1.84.84,0,0,1-.4-.37.87.87,0,0,1-.13-.37,1.73,1.73,0,0,1,0-.75c.25-.86.51-1.72.84-2.56a7.64,7.64,0,0,1,.46-1,3.22,3.22,0,0,1,.48-.68,2,2,0,0,1,.26-.24.85.85,0,0,1,.55-.18.69.69,0,0,1,.44.17,2.34,2.34,0,0,1,.25.3,1.37,1.37,0,0,1,.16.32A3.34,3.34,0,0,1,29.35,93Z" transform="translate(-2.38 -7.5)"/><path class="cls-1" d="M46.82,93.07a1.71,1.71,0,0,1-.07.71s0,.1,0,.15a.27.27,0,0,1-.36.16.44.44,0,0,1-.28-.2,1.3,1.3,0,0,1-.2-.43l-.09-.38-.09-.26s0,0-.07,0,0,0-.06,0a9.12,9.12,0,0,0-1.17,1.65,5.5,5.5,0,0,0-.36.87,2,2,0,0,0-.09.63c0,.16.06.17.21.16A.92.92,0,0,0,44.6,96a3.85,3.85,0,0,0,.56-.51l.47-.53a2.41,2.41,0,0,1,.24-.21.55.55,0,0,1,.18-.06.14.14,0,0,1,.11,0,.3.3,0,0,1,.08.08,2.84,2.84,0,0,1,.34.58c.07.19.15.37.22.55a3.37,3.37,0,0,0,.86,1.27l.09.09a.21.21,0,0,1,0,.19.88.88,0,0,1-.12.15,1,1,0,0,1-.85.23.4.4,0,0,1-.24-.14,1.12,1.12,0,0,1-.2-.33l-.21-.52a.86.86,0,0,0-.2-.33.11.11,0,0,0-.11,0l-.2.19a2.68,2.68,0,0,1-1.93.68.9.9,0,0,1-.28,0,.94.94,0,0,1-.7-1,1.94,1.94,0,0,1,.19-.77c.23-.48.44-1,.67-1.48s.36-.7.55-1.05a6.18,6.18,0,0,1,.62-.92,3.05,3.05,0,0,1,.48-.47,1,1,0,0,1,.42-.21.71.71,0,0,1,.78.25,1.35,1.35,0,0,1,.29.6,2.16,2.16,0,0,1,.1.66Z" transform="translate(-2.38 -7.5)"/><path class="cls-1" d="M77.86,97c0,.22,0,.44-.08.67a1.26,1.26,0,0,1-.17.44.27.27,0,0,1-.28.1A.46.46,0,0,1,77,98a2.9,2.9,0,0,1-.16-.41c0-.16-.06-.33-.09-.5a.44.44,0,0,0,0-.15s0,0-.06,0a.13.13,0,0,0-.07,0,9,9,0,0,0-1.2,1.47,5.69,5.69,0,0,0-.49,1,1.64,1.64,0,0,0-.12.7.13.13,0,0,0,.11.1,1,1,0,0,0,.52-.15,4.51,4.51,0,0,0,.59-.47l.51-.5a3.11,3.11,0,0,1,.28-.23.55.55,0,0,1,.18-.06.21.21,0,0,1,.11,0,.34.34,0,0,1,.08.09,2.21,2.21,0,0,1,.27.53c.07.19.14.37.2.56a3.29,3.29,0,0,0,.8,1.39l.08.09a.21.21,0,0,1,0,.19.25.25,0,0,1,0,.07,1,1,0,0,1-.91.27.47.47,0,0,1-.31-.22c-.06-.12-.11-.24-.16-.36s-.1-.31-.16-.45a1.51,1.51,0,0,0-.13-.29c-.06-.11-.12-.13-.21,0a2.8,2.8,0,0,1-1.21.65,2.74,2.74,0,0,1-1,0,1,1,0,0,1-.4-.15.92.92,0,0,1-.45-.87,1.78,1.78,0,0,1,.19-.76c.39-.77.78-1.54,1.23-2.27a9,9,0,0,1,.69-1,3.6,3.6,0,0,1,.59-.58,1.33,1.33,0,0,1,.45-.25.81.81,0,0,1,.51,0,.73.73,0,0,1,.34.26,1.54,1.54,0,0,1,.26.65C77.82,96.61,77.83,96.82,77.86,97Z" transform="translate(-2.38 -7.5)"/><path class="cls-1" d="M87.51,98.28c0,.13,0,.29,0,.45a1,1,0,0,1-.14.45.24.24,0,0,1-.31.11A.51.51,0,0,1,86.7,99a1.7,1.7,0,0,1-.18-.44l-.12-.5a.53.53,0,0,0-.06-.1h0l-.06,0A8.47,8.47,0,0,0,85,99.74a5.14,5.14,0,0,0-.35.84,3.5,3.5,0,0,0-.09.55v.08c0,.07.07.13.13.12a.66.66,0,0,0,.31-.06,2.4,2.4,0,0,0,.27-.16,3.29,3.29,0,0,0,.58-.54l.46-.5a1.18,1.18,0,0,1,.27-.22.2.2,0,0,1,.28.05,2.57,2.57,0,0,1,.36.62l.21.51a3.13,3.13,0,0,0,.89,1.34l.06.06a.17.17,0,0,1,0,.18.67.67,0,0,1-.12.16,1,1,0,0,1-.89.23.38.38,0,0,1-.22-.15,1.92,1.92,0,0,1-.18-.31c-.07-.14-.12-.3-.18-.44a2.55,2.55,0,0,0-.13-.29c-.1-.17-.14-.23-.32,0a2.63,2.63,0,0,1-1.19.68,2.27,2.27,0,0,1-.9.08.94.94,0,0,1-.92-1,1.63,1.63,0,0,1,.13-.69,26.59,26.59,0,0,1,1.24-2.58,9.07,9.07,0,0,1,.58-.89,3.64,3.64,0,0,1,.46-.5,1.74,1.74,0,0,1,.36-.24.61.61,0,0,1,.26-.08.72.72,0,0,1,.78.35,2,2,0,0,1,.3.89C87.5,97.94,87.5,98.1,87.51,98.28Z" transform="translate(-2.38 -7.5)"/><path class="cls-1" d="M40.21,97.32l-1.59-.06a2.16,2.16,0,0,1-.61-.14L37.78,97a.36.36,0,0,1-.2-.32,1,1,0,0,1,.14-.57,3.33,3.33,0,0,1,.43-.56l.68-.73a13.51,13.51,0,0,0,1.1-1.3,3.81,3.81,0,0,0,.43-.76,1.29,1.29,0,0,0,0-.19s0-.09-.06-.09a7.13,7.13,0,0,0-1-.07l-.67,0-.28,0a.54.54,0,0,1-.47-.36,1,1,0,0,1-.08-.23.52.52,0,0,1,.38-.64.82.82,0,0,1,.44,0l.26.07a6.78,6.78,0,0,0,1.18.14,4.52,4.52,0,0,0,.52,0,4.77,4.77,0,0,1,.93.17l.11,0a.48.48,0,0,1,.34.53.66.66,0,0,1,0,.23,2.92,2.92,0,0,1-.17.36,5.69,5.69,0,0,1-.5.71c-.12.14-.23.29-.34.44L40,95.23c-.15.25-.32.49-.47.73,0,.05-.11.11-.06.17s.12,0,.18,0h2.06a.33.33,0,0,1,.27.15l.08.13a1,1,0,0,1,0,.81.22.22,0,0,1-.19.13h-.08Z" transform="translate(-2.38 -7.5)"/><path class="cls-1" d="M109.11,91.37a.61.61,0,0,1,.38.11.51.51,0,0,1,.23.36,5.14,5.14,0,0,0,.16.78l.42,1.81c0,.09,0,.18.07.27s.06.07.09.06a2,2,0,0,0,.49-.16l.69-.31a2.55,2.55,0,0,1,.67-.24,1.06,1.06,0,0,1,.31,0,.25.25,0,0,1,.25.17,1.69,1.69,0,0,1,.09.34.44.44,0,0,1-.13.43,1.8,1.8,0,0,1-.45.33,8.62,8.62,0,0,1-.95.39l-.52.19a.11.11,0,0,0-.07.13.5.5,0,0,0,0,.12c0,.1,0,.2.07.31l.87,3.66c0,.14.08.28.12.42a1.23,1.23,0,0,1,0,.43.56.56,0,0,1-.39.5.61.61,0,0,1-.7-.31,2.3,2.3,0,0,1-.12-.34c-.15-.62-.31-1.23-.46-1.85-.38-1.59-.74-3.19-1.12-4.78-.12-.49-.25-1-.38-1.46-.06-.21-.14-.43-.21-.64a.52.52,0,0,1,.18-.56A.54.54,0,0,1,109.11,91.37Z" transform="translate(-2.38 -7.5)"/><path class="cls-1" d="M15.6,92.06a.49.49,0,0,1-.2.42,2.32,2.32,0,0,1-.51.29,8.87,8.87,0,0,1-.87.29l-.49.14c-.14,0-.16.08-.14.24.18,1,.35,2,.52,3,.08.47.17.94.25,1.41a1.46,1.46,0,0,1,0,.51.54.54,0,0,1-.51.47.61.61,0,0,1-.61-.42c-.06-.21-.11-.43-.15-.65-.16-.9-.31-1.8-.47-2.7S12.11,93,11.93,92c-.11-.66-.22-1.33-.37-2-.06-.23-.11-.47-.18-.69a.55.55,0,0,1,.13-.52.6.6,0,0,1,.63-.13.59.59,0,0,1,.39.5q.11.76.24,1.53L13,91.93,13,92a.17.17,0,0,0,.1.06A1.71,1.71,0,0,0,13.6,92c.26-.1.52-.19.78-.3A3.22,3.22,0,0,1,15,91.5a1.67,1.67,0,0,1,.32,0,.26.26,0,0,1,.21.16A1,1,0,0,1,15.6,92.06Z" transform="translate(-2.38 -7.5)"/><path class="cls-1" d="M105.33,99.39a5.56,5.56,0,0,1,.11-1.26,2.54,2.54,0,0,1,.44-1,1.47,1.47,0,0,1,.73-.52.91.91,0,0,1,.54,0,1.52,1.52,0,0,1,.69.38,2.51,2.51,0,0,1,.53.64,4.32,4.32,0,0,1,.4.77c.19.48.37,1,.55,1.45a8.18,8.18,0,0,0,.43,1,1.34,1.34,0,0,1,.07.18.48.48,0,0,1-.41.67.69.69,0,0,1-.64-.24.46.46,0,0,1-.09-.17c-.11-.3-.21-.6-.31-.9s-.29-.88-.47-1.3a4.23,4.23,0,0,0-.45-.84.81.81,0,0,0-.33-.28.43.43,0,0,0-.22-.06.34.34,0,0,0-.33.18.63.63,0,0,0-.1.3c0,.14,0,.29,0,.43a9.45,9.45,0,0,0,.07,1.07c0,.44.08.87.12,1.31,0,.19,0,.39,0,.59.06.41-.44.65-.73.53a.65.65,0,0,1-.36-.4c0-.09,0-.18,0-.27A14.92,14.92,0,0,1,105.33,99.39Z" transform="translate(-2.38 -7.5)"/><path class="cls-1" d="M63.09,97.66a3.24,3.24,0,0,1,.12-.9,9.32,9.32,0,0,1,.37-1.13,4.27,4.27,0,0,1,.62-1,2.7,2.7,0,0,1,.9-.71,1.6,1.6,0,0,1,.72-.18h.44a1.05,1.05,0,0,1,.48.16.66.66,0,0,1,.33.51c0,.22,0,.3-.23.36l-.38.09-.54.14a2.16,2.16,0,0,0-1.6,1.69,3.54,3.54,0,0,0-.1,1,1.83,1.83,0,0,0,.3.94,1.22,1.22,0,0,0,1.17.52,2,2,0,0,0,.82-.27l.17-.11a.24.24,0,0,1,.32,0,.37.37,0,0,1,.14.23,2.66,2.66,0,0,1,0,.28.33.33,0,0,1-.1.25,2.25,2.25,0,0,1-1.62.73,2.19,2.19,0,0,1-2.1-1.3A2.59,2.59,0,0,1,63.09,97.66Z" transform="translate(-2.38 -7.5)"/><path class="cls-1" d="M32,89.57c0,.25,0,.5,0,.75,0,.88.06,1.75.1,2.62,0,.5.08,1,.12,1.5s.07.8.11,1.19.08.68.12,1c0,.12,0,.24,0,.36a.36.36,0,0,1-.25.33.66.66,0,0,1-.63-.12.47.47,0,0,1-.16-.31c0-.21,0-.42-.06-.63-.05-.66-.1-1.32-.14-2a.49.49,0,0,1,0-.12c0-.77-.07-1.53-.1-2.3S31,90.21,31,89.38l0-1.63c0-.45,0-.9,0-1.35a.37.37,0,0,1,0-.11.44.44,0,0,1,.32-.45.75.75,0,0,1,.51,0,.24.24,0,0,1,.14.18v1.15l0,2.38Z" transform="translate(-2.38 -7.5)"/><path class="cls-1" d="M23.21,95.76a7.62,7.62,0,0,0,.15,1.58.2.2,0,0,1-.12.23,1.24,1.24,0,0,1-.54.07.38.38,0,0,1-.35-.27,5.88,5.88,0,0,1,0-3.82,3.63,3.63,0,0,1,.58-1.08,2.51,2.51,0,0,1,1-.79,2.48,2.48,0,0,1,1.32-.19,1.13,1.13,0,0,1,.52.19.37.37,0,0,1,.12.52,1.63,1.63,0,0,1-.42.52.23.23,0,0,1-.12,0,.8.8,0,0,1-.15,0,1.7,1.7,0,0,0-.31-.06,1,1,0,0,0-.93.34,1.42,1.42,0,0,0-.32.45,3.73,3.73,0,0,0-.31,1A7.49,7.49,0,0,0,23.21,95.76Z" transform="translate(-2.38 -7.5)"/><path class="cls-1" d="M92.56,100.42c0,.66,0,1.33,0,2,0,.1,0,.21,0,.31a.52.52,0,0,1-.29.41.47.47,0,0,1-.58-.11.81.81,0,0,1-.23-.57c0-.26,0-.51,0-.76,0-.9,0-1.79-.07-2.69,0-.25,0-.5,0-.75a.48.48,0,0,1,.28-.45.66.66,0,0,1,.58,0,.4.4,0,0,1,.27.36l0,.59C92.55,99.29,92.55,99.86,92.56,100.42Z" transform="translate(-2.38 -7.5)"/><path class="cls-1" d="M92.19,95.23a.85.85,0,0,1,0,.15.27.27,0,0,1-.1.11.44.44,0,0,1-.19.07.78.78,0,0,1-.82-.41.59.59,0,0,1,.41-.8h.12A.93.93,0,0,1,92.19,95.23Z" transform="translate(-2.38 -7.5)"/><path class="cls-1" d="M62.48,97.42a.54.54,0,0,0-.59-.1,1.92,1.92,0,0,0-.31.18l-.47.29a3.77,3.77,0,0,1-.61.29.81.81,0,0,1-.31.06.42.42,0,0,1-.37-.19.72.72,0,0,1-.12-.25,1.18,1.18,0,0,1-.06-.27c0-.1,0-.15.09-.18l.44-.19a3.31,3.31,0,0,0,1.61-2.16A2.56,2.56,0,0,0,61.4,93a.23.23,0,0,0-.16-.11,1.18,1.18,0,0,0-.84.16,2,2,0,0,0-.55.45,4.74,4.74,0,0,0-.4.49,7.5,7.5,0,0,0-.93,2,4,4,0,0,0-.18,1.16,3,3,0,0,0,.08.72,2.13,2.13,0,0,0,.45,1,1.23,1.23,0,0,0,.63.39,1.49,1.49,0,0,0,.63,0,5.22,5.22,0,0,0,1.57-.54,2.8,2.8,0,0,0,.46-.3,1.48,1.48,0,0,0,.29-.27.59.59,0,0,0,.14-.4A.38.38,0,0,0,62.48,97.42Zm-2.59-1.73a3.44,3.44,0,0,1,.4-1.11,1,1,0,0,1,.29-.37.09.09,0,0,1,.13,0,.65.65,0,0,1,.08.27.75.75,0,0,1,0,.15,1.42,1.42,0,0,1-.32.88,1,1,0,0,1-.41.29.15.15,0,0,1-.15,0S59.89,95.73,59.89,95.69Z" transform="translate(-2.38 -7.5)"/><path class="cls-1" d="M104.62,100.59a.3.3,0,0,0-.25-.22.58.58,0,0,0-.61.18l-.11.12-.48.47a2.74,2.74,0,0,1-.5.4.76.76,0,0,1-.33.11.43.43,0,0,1-.36-.13,1,1,0,0,1-.28-.51.18.18,0,0,1,0-.11,1.11,1.11,0,0,1,.16-.11,3.25,3.25,0,0,0,1.3-2.52,2.22,2.22,0,0,0-.08-.63,2.38,2.38,0,0,0-.73-1.25.28.28,0,0,0-.21-.08,1.14,1.14,0,0,0-.59.21,2.09,2.09,0,0,0-.53.58,3.82,3.82,0,0,0-.4.87,7.69,7.69,0,0,0-.35,1.58,4.23,4.23,0,0,0,0,1.42,3,3,0,0,0,.42,1.07,2,2,0,0,0,.54.57,1.14,1.14,0,0,0,.66.22,1.5,1.5,0,0,0,.66-.13,5.11,5.11,0,0,0,1.65-1.15,3.89,3.89,0,0,0,.28-.39A.67.67,0,0,0,104.62,100.59Zm-3.07-1.23v-.28a2.92,2.92,0,0,1,.14-1,1.45,1.45,0,0,1,.11-.26c0-.06.06-.16.16-.14s.11.1.15.17l0,.07a1.43,1.43,0,0,1-.13,1.21.64.64,0,0,1-.33.28A.09.09,0,0,1,101.55,99.36Z" transform="translate(-2.38 -7.5)"/><path class="cls-1" d="M37.13,95.15a.3.3,0,0,0-.17-.21.55.55,0,0,0-.6,0l-.46.37-.57.43a1.18,1.18,0,0,1-.39.19.49.49,0,0,1-.59-.22,1,1,0,0,1-.16-.44.11.11,0,0,1,.06-.13l.1-.06a2.52,2.52,0,0,0,.75-.58A3.1,3.1,0,0,0,36,92.46a2.42,2.42,0,0,0-.56-1.65.44.44,0,0,0-.35-.15,1.14,1.14,0,0,0-.62.22,2.17,2.17,0,0,0-.58.59,3.58,3.58,0,0,0-.37.66,7.71,7.71,0,0,0-.54,1.62,4.22,4.22,0,0,0-.1,1.18,3.51,3.51,0,0,0,.28,1.19,1.91,1.91,0,0,0,.53.73,1.15,1.15,0,0,0,.53.26,1.73,1.73,0,0,0,.75,0,5,5,0,0,0,1.75-1,3.61,3.61,0,0,0,.33-.35A.68.68,0,0,0,37.13,95.15ZM34.2,93.6a4.14,4.14,0,0,1,.23-1.11,1.22,1.22,0,0,1,.26-.44.1.1,0,0,1,.14,0,1.08,1.08,0,0,1,.14.65,1.44,1.44,0,0,1-.26.73.75.75,0,0,1-.34.27C34.25,93.76,34.19,93.72,34.2,93.6Z" transform="translate(-2.38 -7.5)"/><path class="cls-1" d="M117.16,97.55a6.26,6.26,0,0,0-.43-1.19,2.25,2.25,0,0,0-.24-.36,4.85,4.85,0,0,0-1.13-1,3.51,3.51,0,0,0-.68-.32,1.52,1.52,0,0,0-.67-.06.79.79,0,0,0-.49.24,1,1,0,0,0-.2.28,1.64,1.64,0,0,0-.17.61.31.31,0,0,0,.11.28l.1.07.14.07a.29.29,0,0,1,.19.28.85.85,0,0,0,0,.16,8.85,8.85,0,0,0,.17,1.53,5.16,5.16,0,0,0,.27.95,2.27,2.27,0,0,0,.42.72,1.37,1.37,0,0,0,1.59.37,1.6,1.6,0,0,0,.88-.82,2.41,2.41,0,0,0,.23-1A3.14,3.14,0,0,0,117.16,97.55Zm-.94,1.12a.57.57,0,0,1-.6.51.47.47,0,0,1-.26-.08,1.19,1.19,0,0,1-.33-.34,2.33,2.33,0,0,1-.3-.64,3.58,3.58,0,0,1-.18-1.17,1.87,1.87,0,0,1,.11-.78l0-.07a.15.15,0,0,1,.11,0l.14.09a3.19,3.19,0,0,1,.62.65,3.65,3.65,0,0,1,.64,1.35A1.25,1.25,0,0,1,116.22,98.67Z" transform="translate(-2.38 -7.5)"/></g></svg>